<svg xmlns="http://www.w3.org/2000/svg" width="32" height="32" viewBox="0 0 32 32" style="image-rendering:pixelated">
  <!-- Retro pixel hand pointer - neon cyan, classic pointing hand -->
  <!-- Index finger -->
  <rect x="10" y="0" width="2" height="2" fill="#000"/><rect x="12" y="0" width="2" height="2" fill="#000"/>
  <rect x="8" y="2" width="2" height="2" fill="#000"/><rect x="10" y="2" width="2" height="2" fill="#5ff7ff"/><rect x="12" y="2" width="2" height="2" fill="#00f0ff"/><rect x="14" y="2" width="2" height="2" fill="#000"/>
  <rect x="8" y="4" width="2" height="2" fill="#000"/><rect x="10" y="4" width="2" height="2" fill="#5ff7ff"/><rect x="12" y="4" width="2" height="2" fill="#00f0ff"/><rect x="14" y="4" width="2" height="2" fill="#000"/>
  <rect x="8" y="6" width="2" height="2" fill="#000"/><rect x="10" y="6" width="2" height="2" fill="#5ff7ff"/><rect x="12" y="6" width="2" height="2" fill="#00c4d0"/><rect x="14" y="6" width="2" height="2" fill="#000"/>
  <rect x="8" y="8" width="2" height="2" fill="#000"/><rect x="10" y="8" width="2" height="2" fill="#00f0ff"/><rect x="12" y="8" width="2" height="2" fill="#00c4d0"/><rect x="14" y="8" width="2" height="2" fill="#000"/>
  <!-- Finger + other fingers appear -->
  <rect x="8" y="10" width="2" height="2" fill="#000"/><rect x="10" y="10" width="2" height="2" fill="#00f0ff"/><rect x="12" y="10" width="2" height="2" fill="#00c4d0"/><rect x="14" y="10" width="2" height="2" fill="#000"/><rect x="16" y="10" width="2" height="2" fill="#000"/><rect x="18" y="10" width="2" height="2" fill="#000"/><rect x="20" y="10" width="2" height="2" fill="#000"/><rect x="22" y="10" width="2" height="2" fill="#000"/>
  <rect x="8" y="12" width="2" height="2" fill="#000"/><rect x="10" y="12" width="2" height="2" fill="#00f0ff"/><rect x="12" y="12" width="2" height="2" fill="#00c4d0"/><rect x="14" y="12" width="2" height="2" fill="#5ff7ff"/><rect x="16" y="12" width="2" height="2" fill="#00f0ff"/><rect x="18" y="12" width="2" height="2" fill="#5ff7ff"/><rect x="20" y="12" width="2" height="2" fill="#00f0ff"/><rect x="22" y="12" width="2" height="2" fill="#00c4d0"/><rect x="24" y="12" width="2" height="2" fill="#000"/>
  <!-- Palm connecting -->
  <rect x="4" y="14" width="2" height="2" fill="#000"/><rect x="6" y="14" width="2" height="2" fill="#000"/><rect x="8" y="14" width="2" height="2" fill="#000"/><rect x="10" y="14" width="2" height="2" fill="#5ff7ff"/><rect x="12" y="14" width="2" height="2" fill="#00f0ff"/><rect x="14" y="14" width="2" height="2" fill="#00f0ff"/><rect x="16" y="14" width="2" height="2" fill="#00c4d0"/><rect x="18" y="14" width="2" height="2" fill="#00f0ff"/><rect x="20" y="14" width="2" height="2" fill="#00c4d0"/><rect x="22" y="14" width="2" height="2" fill="#00c4d0"/><rect x="24" y="14" width="2" height="2" fill="#000"/>
  <rect x="2" y="16" width="2" height="2" fill="#000"/><rect x="4" y="16" width="2" height="2" fill="#5ff7ff"/><rect x="6" y="16" width="2" height="2" fill="#00f0ff"/><rect x="8" y="16" width="2" height="2" fill="#00f0ff"/><rect x="10" y="16" width="2" height="2" fill="#00f0ff"/><rect x="12" y="16" width="2" height="2" fill="#00f0ff"/><rect x="14" y="16" width="2" height="2" fill="#00c4d0"/><rect x="16" y="16" width="2" height="2" fill="#00c4d0"/><rect x="18" y="16" width="2" height="2" fill="#00c4d0"/><rect x="20" y="16" width="2" height="2" fill="#00c4d0"/><rect x="22" y="16" width="2" height="2" fill="#00c4d0"/><rect x="24" y="16" width="2" height="2" fill="#000"/>
  <!-- Full palm -->
  <rect x="2" y="18" width="2" height="2" fill="#000"/><rect x="4" y="18" width="2" height="2" fill="#5ff7ff"/><rect x="6" y="18" width="2" height="2" fill="#00f0ff"/><rect x="8" y="18" width="2" height="2" fill="#00f0ff"/><rect x="10" y="18" width="2" height="2" fill="#00f0ff"/><rect x="12" y="18" width="2" height="2" fill="#00c4d0"/><rect x="14" y="18" width="2" height="2" fill="#00c4d0"/><rect x="16" y="18" width="2" height="2" fill="#00c4d0"/><rect x="18" y="18" width="2" height="2" fill="#00c4d0"/><rect x="20" y="18" width="2" height="2" fill="#00c4d0"/><rect x="22" y="18" width="2" height="2" fill="#000"/>
  <rect x="4" y="20" width="2" height="2" fill="#000"/><rect x="6" y="20" width="2" height="2" fill="#5ff7ff"/><rect x="8" y="20" width="2" height="2" fill="#00f0ff"/><rect x="10" y="20" width="2" height="2" fill="#00f0ff"/><rect x="12" y="20" width="2" height="2" fill="#00c4d0"/><rect x="14" y="20" width="2" height="2" fill="#00c4d0"/><rect x="16" y="20" width="2" height="2" fill="#00c4d0"/><rect x="18" y="20" width="2" height="2" fill="#00c4d0"/><rect x="20" y="20" width="2" height="2" fill="#000"/>
  <!-- Lower palm -->
  <rect x="4" y="22" width="2" height="2" fill="#000"/><rect x="6" y="22" width="2" height="2" fill="#00f0ff"/><rect x="8" y="22" width="2" height="2" fill="#00f0ff"/><rect x="10" y="22" width="2" height="2" fill="#00c4d0"/><rect x="12" y="22" width="2" height="2" fill="#00c4d0"/><rect x="14" y="22" width="2" height="2" fill="#00c4d0"/><rect x="16" y="22" width="2" height="2" fill="#00c4d0"/><rect x="18" y="22" width="2" height="2" fill="#000"/>
  <rect x="6" y="24" width="2" height="2" fill="#000"/><rect x="8" y="24" width="2" height="2" fill="#00c4d0"/><rect x="10" y="24" width="2" height="2" fill="#00c4d0"/><rect x="12" y="24" width="2" height="2" fill="#00c4d0"/><rect x="14" y="24" width="2" height="2" fill="#00c4d0"/><rect x="16" y="24" width="2" height="2" fill="#000"/>
  <rect x="6" y="26" width="2" height="2" fill="#000"/><rect x="8" y="26" width="2" height="2" fill="#000"/><rect x="10" y="26" width="2" height="2" fill="#000"/><rect x="12" y="26" width="2" height="2" fill="#000"/><rect x="14" y="26" width="2" height="2" fill="#000"/><rect x="16" y="26" width="2" height="2" fill="#000"/>
</svg>
