<svg xmlns="http://www.w3.org/2000/svg" width="32" height="32" viewBox="0 0 32 32" style="image-rendering:pixelated">
  <!-- Classic Windows-style pixel arrow cursor in neon purple -->
  <!-- Row 0 -->  <rect x="0" y="0" width="2" height="2" fill="#000"/>
  <!-- Row 1 -->  <rect x="0" y="2" width="2" height="2" fill="#000"/><rect x="2" y="2" width="2" height="2" fill="#000"/>
  <!-- Row 2 -->  <rect x="0" y="4" width="2" height="2" fill="#000"/><rect x="2" y="4" width="2" height="2" fill="#d95fff"/><rect x="4" y="4" width="2" height="2" fill="#000"/>
  <!-- Row 3 -->  <rect x="0" y="6" width="2" height="2" fill="#000"/><rect x="2" y="6" width="2" height="2" fill="#d95fff"/><rect x="4" y="6" width="2" height="2" fill="#bc13fe"/><rect x="6" y="6" width="2" height="2" fill="#000"/>
  <!-- Row 4 -->  <rect x="0" y="8" width="2" height="2" fill="#000"/><rect x="2" y="8" width="2" height="2" fill="#d95fff"/><rect x="4" y="8" width="2" height="2" fill="#bc13fe"/><rect x="6" y="8" width="2" height="2" fill="#bc13fe"/><rect x="8" y="8" width="2" height="2" fill="#000"/>
  <!-- Row 5 -->  <rect x="0" y="10" width="2" height="2" fill="#000"/><rect x="2" y="10" width="2" height="2" fill="#d95fff"/><rect x="4" y="10" width="2" height="2" fill="#bc13fe"/><rect x="6" y="10" width="2" height="2" fill="#bc13fe"/><rect x="8" y="10" width="2" height="2" fill="#9a0dd4"/><rect x="10" y="10" width="2" height="2" fill="#000"/>
  <!-- Row 6 -->  <rect x="0" y="12" width="2" height="2" fill="#000"/><rect x="2" y="12" width="2" height="2" fill="#d95fff"/><rect x="4" y="12" width="2" height="2" fill="#bc13fe"/><rect x="6" y="12" width="2" height="2" fill="#bc13fe"/><rect x="8" y="12" width="2" height="2" fill="#9a0dd4"/><rect x="10" y="12" width="2" height="2" fill="#9a0dd4"/><rect x="12" y="12" width="2" height="2" fill="#000"/>
  <!-- Row 7 -->  <rect x="0" y="14" width="2" height="2" fill="#000"/><rect x="2" y="14" width="2" height="2" fill="#d95fff"/><rect x="4" y="14" width="2" height="2" fill="#bc13fe"/><rect x="6" y="14" width="2" height="2" fill="#bc13fe"/><rect x="8" y="14" width="2" height="2" fill="#bc13fe"/><rect x="10" y="14" width="2" height="2" fill="#9a0dd4"/><rect x="12" y="14" width="2" height="2" fill="#9a0dd4"/><rect x="14" y="14" width="2" height="2" fill="#000"/>
  <!-- Row 8 -->  <rect x="0" y="16" width="2" height="2" fill="#000"/><rect x="2" y="16" width="2" height="2" fill="#d95fff"/><rect x="4" y="16" width="2" height="2" fill="#bc13fe"/><rect x="6" y="16" width="2" height="2" fill="#bc13fe"/><rect x="8" y="16" width="2" height="2" fill="#bc13fe"/><rect x="10" y="16" width="2" height="2" fill="#9a0dd4"/><rect x="12" y="16" width="2" height="2" fill="#9a0dd4"/><rect x="14" y="16" width="2" height="2" fill="#9a0dd4"/><rect x="16" y="16" width="2" height="2" fill="#000"/>
  <!-- Row 9 -->  <rect x="0" y="18" width="2" height="2" fill="#000"/><rect x="2" y="18" width="2" height="2" fill="#d95fff"/><rect x="4" y="18" width="2" height="2" fill="#bc13fe"/><rect x="6" y="18" width="2" height="2" fill="#bc13fe"/><rect x="8" y="18" width="2" height="2" fill="#bc13fe"/><rect x="10" y="18" width="2" height="2" fill="#bc13fe"/><rect x="12" y="18" width="2" height="2" fill="#9a0dd4"/><rect x="14" y="18" width="2" height="2" fill="#9a0dd4"/><rect x="16" y="18" width="2" height="2" fill="#9a0dd4"/><rect x="18" y="18" width="2" height="2" fill="#000"/>
  <!-- Row 10 - widest part -->  <rect x="0" y="20" width="2" height="2" fill="#000"/><rect x="2" y="20" width="2" height="2" fill="#d95fff"/><rect x="4" y="20" width="2" height="2" fill="#bc13fe"/><rect x="6" y="20" width="2" height="2" fill="#bc13fe"/><rect x="8" y="20" width="2" height="2" fill="#bc13fe"/><rect x="10" y="20" width="2" height="2" fill="#9a0dd4"/><rect x="12" y="20" width="2" height="2" fill="#000"/><rect x="14" y="20" width="2" height="2" fill="#000"/><rect x="16" y="20" width="2" height="2" fill="#000"/><rect x="18" y="20" width="2" height="2" fill="#000"/><rect x="20" y="20" width="2" height="2" fill="#000"/>
  <!-- Row 11 -->  <rect x="0" y="22" width="2" height="2" fill="#000"/><rect x="2" y="22" width="2" height="2" fill="#bc13fe"/><rect x="4" y="22" width="2" height="2" fill="#bc13fe"/><rect x="6" y="22" width="2" height="2" fill="#9a0dd4"/><rect x="8" y="22" width="2" height="2" fill="#000"/><rect x="10" y="22" width="2" height="2" fill="#bc13fe"/><rect x="12" y="22" width="2" height="2" fill="#9a0dd4"/><rect x="14" y="22" width="2" height="2" fill="#000"/>
  <!-- Row 12 -->  <rect x="0" y="24" width="2" height="2" fill="#000"/><rect x="2" y="24" width="2" height="2" fill="#bc13fe"/><rect x="4" y="24" width="2" height="2" fill="#9a0dd4"/><rect x="6" y="24" width="2" height="2" fill="#000"/><rect x="10" y="24" width="2" height="2" fill="#000"/><rect x="12" y="24" width="2" height="2" fill="#bc13fe"/><rect x="14" y="24" width="2" height="2" fill="#9a0dd4"/><rect x="16" y="24" width="2" height="2" fill="#000"/>
  <!-- Row 13 -->  <rect x="0" y="26" width="2" height="2" fill="#000"/><rect x="2" y="26" width="2" height="2" fill="#9a0dd4"/><rect x="4" y="26" width="2" height="2" fill="#000"/><rect x="12" y="26" width="2" height="2" fill="#000"/><rect x="14" y="26" width="2" height="2" fill="#bc13fe"/><rect x="16" y="26" width="2" height="2" fill="#9a0dd4"/><rect x="18" y="26" width="2" height="2" fill="#000"/>
  <!-- Row 14 -->  <rect x="0" y="28" width="2" height="2" fill="#000"/><rect x="2" y="28" width="2" height="2" fill="#000"/><rect x="14" y="28" width="2" height="2" fill="#000"/><rect x="16" y="28" width="2" height="2" fill="#9a0dd4"/><rect x="18" y="28" width="2" height="2" fill="#000"/>
  <!-- Row 15 -->  <rect x="16" y="30" width="2" height="2" fill="#000"/><rect x="18" y="30" width="2" height="2" fill="#000"/>
</svg>
